# xmcd
#
# Track frame offsets:
#       150
#       12155
#       25037
#       38797
#       53567
#       67102
#       81922
#       94390
#       106015
#       119097
#       133577
#       147277
#       160592
#       171805
#
# Disc length: 2486 seconds
#
# Revision: 3
# Processed by: cddbd v1.4PL0 Copyright (c) Steve Scherf et al.
# Submitted via: CD-DA_X-Tractor v0.21
#
DISCID=b509b40e
DTITLE=Big Joe Turner  - Joe Turner Blues
DYEAR=1900
DGENRE=
TTITLE0=Goin' Away Blues
TTITLE1=Roll 'Em Pete
TTITLE2=Baby Look At You
TTITLE3=Lovin' Mama Blues
TTITLE4=Cafe Society Rag
TTITLE5=How Long, How Long Blues
TTITLE6=Joe Turner Blues
TTITLE7=Beale Street Blues
TTITLE8=Wee Baby Blues
TTITLE9=Last Goodbye Blues
TTITLE10=Lucille
TTITLE11=Rock Me, Mama
TTITLE12=Corrine Corrina
TTITLE13=Lonesome Graveyard Blues
EXTD=
EXTT0=
EXTT1=
EXTT2=
EXTT3=
EXTT4=
EXTT5=
EXTT6=
EXTT7=
EXTT8=
EXTT9=
EXTT10=
EXTT11=
EXTT12=
EXTT13=
PLAYORDER=
